<svg width="251" height="250" viewBox="0 0 251 250" fill="none" xmlns="http://www.w3.org/2000/svg">
<rect x="0.89209" width="250" height="250" rx="125" fill="#0C8E6C"/>
<path d="M80.7199 86.2641C77.4942 89.3553 75.1843 93.0848 73.7647 97.4612H64.4252V78.7371H43.854V98.9473H58.7039V171.422H77.6119V115.613C77.6119 108.919 79.8043 103.576 84.1805 99.5862C88.6829 95.5964 94.0925 93.5973 100.401 93.5973C107.356 93.5973 112.438 95.4032 115.655 99.0068C118.872 102.61 120.485 107.373 120.485 113.295V171.422H139.603V115.613C139.603 108.919 141.795 103.576 146.172 99.5862C150.674 95.4619 156.084 93.4039 162.392 93.4039C169.347 93.4039 174.362 95.2101 177.453 98.8136C180.67 102.417 182.283 107.247 182.283 113.295V171.405H201.401V110.002C201.401 102.795 199.981 96.7388 197.151 91.8502C194.446 86.8353 190.59 83.0973 185.567 80.653C180.544 78.0742 174.622 76.7891 167.802 76.7891C162.652 76.7891 157.696 77.6879 152.934 79.4938C148.171 81.1737 143.988 83.7443 140.384 87.2216C138.563 89.0428 137.025 91.092 135.77 93.3705C134.916 91.6158 133.879 89.9528 132.656 88.3808C129.951 84.7773 126.348 81.9466 121.846 79.8886C117.343 77.8306 112.001 76.7976 105.819 76.7976C100.93 76.7976 96.2932 77.6374 91.9168 79.3091C87.6749 80.8546 83.9371 83.173 80.7199 86.2641Z" fill="white"/>
</svg>
